<svg xmlns="http://www.w3.org/2000/svg" viewBox="0 0 363.12 164.85"><defs><style>.cls-1{fill:#b1dbe9;}.cls-2{fill:#91bac8;}.cls-3{fill:#fff;}.cls-4{fill:#cb2427;}</style></defs><title>Asset 26</title><g id="Layer_2" data-name="Layer 2"><g id="Layer_1-2" data-name="Layer 1"><polygon class="cls-1" points="0 49.94 81.88 33.04 80.89 90.03 9.36 104.72 23.42 72.3 0 49.94"/><polygon class="cls-2" points="46.63 50.38 81.88 33.04 80.89 90.03 46.63 107.09 46.63 50.38"/><polygon class="cls-2" points="79.79 107.86 289.26 0 288.27 56.98 78.79 164.85 79.79 107.86"/><polygon class="cls-1" points="283.97 76.4 353.76 62.4 338.05 92.99 363.12 117.18 282.98 133.38 283.97 76.4"/><polygon class="cls-1" points="46.63 50.38 289.26 0 288.27 56.98 46.63 107.09 46.63 50.38"/><path class="cls-3" d="M80.29,61.12a13.58,13.58,0,0,0-.44-4.27c-.42-1.13-1-1.85-2-1.64-1.61.38-2.14,2.25-2.16,4.86a8.33,8.33,0,0,0,1.52,4.48c1,1.49,2.07,3,3.31,4.65a44.75,44.75,0,0,1,4,6,13.28,13.28,0,0,1,1.77,6.61A16.75,16.75,0,0,1,84.4,90a9.61,9.61,0,0,1-7,4.81c-4,.82-6.3-.29-7.53-2.46s-1.5-5.27-1.52-8.66l6.16-1.86a16.1,16.1,0,0,0,.48,5c.46,1.36,1.12,2.2,2.46,1.92,1.86-.37,2.5-2.57,2.59-5.43a9,9,0,0,0-1.6-4.58c-.26-.37-.53-.8-.79-1.18s-.52-.8-.78-1.17c-.59-.79-1.24-1.62-1.91-2.52s-1.33-1.79-2-2.8a20.39,20.39,0,0,1-3-6.29,10,10,0,0,1-.46-3.48,14.19,14.19,0,0,1,1.94-7.42,9.66,9.66,0,0,1,6.32-4.68c3.88-.85,6,.35,7.23,2.47a16.26,16.26,0,0,1,1.48,7.57Z"/><path class="cls-3" d="M89.94,47.22l14.37-2.92L104.23,51l-8.09,1.65L96,64.4l5.82-1.18-.06,7.16L96,71.56l-.11,12.26L104,82.18l0,6.73L89.57,91.83Z"/><path class="cls-3" d="M123.88,69.58l0,6.13a16.5,16.5,0,0,1-1.09,5.07,13.07,13.07,0,0,1-2.56,3.79,8.84,8.84,0,0,1-4.82,2.5,6.61,6.61,0,0,1-4.9-.52,5.64,5.64,0,0,1-2.38-2.79,9.8,9.8,0,0,1-1-4.64l.23-26.28a14.45,14.45,0,0,1,1-5A12.91,12.91,0,0,1,110.85,44a9.57,9.57,0,0,1,4.89-2.51,6.78,6.78,0,0,1,4.83.53A5.79,5.79,0,0,1,123,44.86a10.17,10.17,0,0,1,1.06,4.57L124,55.56l-5.87,1.2.08-6.14a3.18,3.18,0,0,0-1-2.59,1.72,1.72,0,0,0-1.43-.19,2.79,2.79,0,0,0-1.95,2,11.1,11.1,0,0,0-.27,1.69l-.22,26.28a3.61,3.61,0,0,0,1,2.59,1.31,1.31,0,0,0,1.2.24,2.68,2.68,0,0,0,2.18-2.08A7.71,7.71,0,0,0,118,76.9l0-6.12Z"/><path class="cls-3" d="M144,71.61a16.43,16.43,0,0,1-1.09,5.07,12.94,12.94,0,0,1-2.56,3.79A8.71,8.71,0,0,1,135.5,83a6.5,6.5,0,0,1-4.89-.52,5.59,5.59,0,0,1-2.38-2.79,9.74,9.74,0,0,1-1-4.64l.23-26.28a14.27,14.27,0,0,1,1-5A13,13,0,0,1,131,39.9a9.57,9.57,0,0,1,4.88-2.5,6.74,6.74,0,0,1,4.84.53,5.82,5.82,0,0,1,2.45,2.83,10.08,10.08,0,0,1,1,4.57Zm-6.06-25a3.67,3.67,0,0,0-.83-2.62,1.49,1.49,0,0,0-1.26-.22,2.62,2.62,0,0,0-1.89,2,6.31,6.31,0,0,0-.21,1.67l-.23,26.28a3.23,3.23,0,0,0,.84,2.62,1.35,1.35,0,0,0,1.2.24,2.44,2.44,0,0,0,1.89-2,7.14,7.14,0,0,0,.26-1.69Z"/><path class="cls-3" d="M155,55.32l-.52-2-.35.07-.18,25.3-5.76,1.17.37-44.61,5.59-1.13,5.87,22,.52,2,.35-.07.24-25.31,5.76-1.17-.37,44.61-5.59,1.13Z"/><path class="cls-3" d="M171.13,75.24l.37-44.61,4.95-1c5.82-1.18,8.85-.58,10.61,2.45,1.6,3.07,1.8,8.54,1.71,17.34s-.36,14.31-2,18-4.86,5.6-10.68,6.78Zm6.28-7.82c2.15-.44,3.39-.93,4.07-3.25a38.84,38.84,0,0,0,.72-8.64c0-1.39,0-3,.05-4.85s0-3.46,0-4.91c0-2.86.06-6.26-.6-8.3s-1.8-2-4-1.56Z"/><path class="cls-3" d="M218.18,50.4l0,6.12a16.43,16.43,0,0,1-1.09,5.07,12.94,12.94,0,0,1-2.56,3.79,8.71,8.71,0,0,1-4.82,2.5,6.57,6.57,0,0,1-4.9-.52,5.64,5.64,0,0,1-2.38-2.79,9.74,9.74,0,0,1-1-4.64l.23-26.28a14.49,14.49,0,0,1,1-5,13,13,0,0,1,2.49-3.84,9.56,9.56,0,0,1,4.89-2.5,6.72,6.72,0,0,1,4.83.53,5.77,5.77,0,0,1,2.45,2.83,10.2,10.2,0,0,1,1.06,4.57l-.09,6.14-5.87,1.19.08-6.13a3.2,3.2,0,0,0-.95-2.6,1.72,1.72,0,0,0-1.43-.19,2.81,2.81,0,0,0-2,2,11.53,11.53,0,0,0-.27,1.69l-.22,26.28a3.65,3.65,0,0,0,.95,2.6,1.38,1.38,0,0,0,1.2.24A2.68,2.68,0,0,0,212,59.41a7.92,7.92,0,0,0,.26-1.69l0-6.13Z"/><path class="cls-3" d="M222.23,20.31,228.51,19l-.37,44.61-6.28,1.28Z"/><path class="cls-3" d="M230.87,25.28l.09-6.75,18.15-3.69L249,21.58l-5.94,1.21-.29,37.87-6.28,1.28.29-37.87Z"/><path class="cls-3" d="M258.81,27.11l.14.39.12,0,.21-.47,3.27-14.9,6.16-1.26-6.64,26.92-.13,19L255.65,58l.14-19-6.16-24.32,6.17-1.25Z"/><path class="cls-4" d="M46.54,159.93l-3.22-13.32-12.67,3.74-.06-.08,9.47-9.55-9.52-9.59,0-.06,12.75,3.78,3.22-13.33h.09l3.21,13.33L62.71,131l-9.61,9.68,9.48,9.55,0,.09-12.68-3.75-3.22,13.32Z"/><path class="cls-4" d="M317.88,42.38l-3.22-13.32L302,32.8l-.06-.08,9.47-9.55-9.52-9.59,0-.06,12.74,3.78L317.88,4H318l3.21,13.33,12.87-3.82-9.61,9.69,9.48,9.55-.05.08-12.68-3.74q-1.62,6.68-3.22,13.32Z"/><polygon class="cls-2" points="317.97 59.5 283.97 76.4 282.98 133.38 317.97 115.84 317.97 59.5"/><polygon class="cls-1" points="79.79 107.86 317.97 59.5 317.97 115.84 78.79 164.85 79.79 107.86"/><path class="cls-3" d="M125.11,115.71a13.52,13.52,0,0,0-.44-4.27c-.42-1.13-1-1.85-2-1.65-1.61.39-2.14,2.25-2.16,4.86a8.3,8.3,0,0,0,1.52,4.48c1,1.5,2.07,3,3.31,4.66a44.75,44.75,0,0,1,4,6,13.23,13.23,0,0,1,1.77,6.61,16.75,16.75,0,0,1-1.85,8.19,9.66,9.66,0,0,1-7,4.81c-4,.81-6.3-.3-7.52-2.47s-1.5-5.27-1.52-8.66l6.16-1.86a16.17,16.17,0,0,0,.48,5.06c.46,1.36,1.12,2.19,2.45,1.92,1.87-.38,2.51-2.57,2.59-5.44a8.85,8.85,0,0,0-1.59-4.58c-.26-.37-.53-.8-.79-1.17s-.52-.8-.78-1.17c-.59-.79-1.24-1.63-1.91-2.52s-1.33-1.79-2-2.8a20.5,20.5,0,0,1-3-6.29,10,10,0,0,1-.46-3.48,14.23,14.23,0,0,1,1.94-7.43,9.72,9.72,0,0,1,6.32-4.68c3.88-.85,6,.36,7.22,2.47a16.21,16.21,0,0,1,1.49,7.58Z"/><path class="cls-3" d="M144.28,144.4l-4.89,1L134,102l5.82-1.18,2.31,22.67.06,1.45.46-.1.24-1.5,2.87-23.73,4.54-.92,2.48,22.64.11,1.43.47-.1.18-1.49,2.69-23.69,5.82-1.18L155.91,142,151,143l-2.79-20.52L148,120l-.24.05-.42,2.69Z"/><path class="cls-3" d="M166.52,95.35l6.29-1.28-.38,44.61L166.15,140Z"/><path class="cls-3" d="M185.35,112.84l-.52-2-.35.07-.18,25.3-5.76,1.17.38-44.61,5.58-1.13,5.87,22,.52,2,.35-.07.24-25.31,5.76-1.17-.37,44.61-5.59,1.13Z"/><path class="cls-3" d="M213.28,101.83l.06-6.86a3.62,3.62,0,0,0-.84-2.62,1.49,1.49,0,0,0-1.25-.23,2.65,2.65,0,0,0-1.89,2,6.31,6.31,0,0,0-.21,1.67l-.24,26.83a3.21,3.21,0,0,0,.84,2.62,1.35,1.35,0,0,0,1.2.24,2.47,2.47,0,0,0,1.89-2,7.92,7.92,0,0,0,.26-1.69l.06-8.07-2.5.51,0-5.52,8.79-1.79-.15,22.21-3.72.75-.77-2a8,8,0,0,1-4.9,3.6,5.48,5.48,0,0,1-4.48-.6,5.64,5.64,0,0,1-2.15-2.84,10.11,10.11,0,0,1-.66-4.71l.23-26.28a14.27,14.27,0,0,1,1-5,13,13,0,0,1,2.49-3.84,9.57,9.57,0,0,1,4.88-2.5,6.69,6.69,0,0,1,4.84.53,5.87,5.87,0,0,1,2.45,2.83,10.08,10.08,0,0,1,1.05,4.57l-.06,6.86Z"/><path class="cls-3" d="M241.79,115.42a16.37,16.37,0,0,1-1.09,5.06,12.92,12.92,0,0,1-2.56,3.8,8.7,8.7,0,0,1-4.82,2.49,6.49,6.49,0,0,1-4.89-.52,5.63,5.63,0,0,1-2.39-2.78,9.7,9.7,0,0,1-1-4.65l.22-26.28a14.4,14.4,0,0,1,1.05-5,12.59,12.59,0,0,1,2.49-3.84,9.46,9.46,0,0,1,4.88-2.51,6.72,6.72,0,0,1,4.83.53A5.89,5.89,0,0,1,241,84.56,10.22,10.22,0,0,1,242,89.14Zm-6-25a3.62,3.62,0,0,0-.84-2.61,1.44,1.44,0,0,0-1.26-.23,2.64,2.64,0,0,0-1.89,2,6.35,6.35,0,0,0-.2,1.68l-.23,26.28a3.15,3.15,0,0,0,.84,2.61,1.31,1.31,0,0,0,1.2.24,2.45,2.45,0,0,0,1.89-2,7.71,7.71,0,0,0,.26-1.69Z"/><path class="cls-3" d="M264.49,75.41l-.3,35.45a16.5,16.5,0,0,1-1.09,5.07,12.94,12.94,0,0,1-2.56,3.79,8.84,8.84,0,0,1-4.82,2.5,6.61,6.61,0,0,1-4.9-.52,5.64,5.64,0,0,1-2.38-2.79,9.77,9.77,0,0,1-1-4.64l.31-35.45L254,77.54l-.3,35.45a3.22,3.22,0,0,0,.83,2.62,1.39,1.39,0,0,0,1.2.24,2.46,2.46,0,0,0,1.89-2,7.82,7.82,0,0,0,.27-1.69l.3-35.45Z"/><path class="cls-3" d="M268.25,81.38l.08-6.75,18.15-3.69-.08,6.74-5.94,1.21-.29,37.87L273.89,118l.29-37.86Z"/></g></g></svg>